<mxfile host="Electron" agent="Mozilla/5.0 (Macintosh; Intel Mac OS X 10_15_7) AppleWebKit/537.36 (KHTML, like Gecko) draw.io/25.0.2 Chrome/128.0.6613.186 Electron/32.2.5 Safari/537.36" version="25.0.2">
  <diagram id="C5RBs43oDa-KdzZeNtuy" name="Page-1">
    <mxGraphModel dx="977" dy="1877" grid="1" gridSize="10" guides="1" tooltips="1" connect="1" arrows="1" fold="1" page="1" pageScale="1" pageWidth="827" pageHeight="1169" math="0" shadow="0">
      <root>
        <mxCell id="WIyWlLk6GJQsqaUBKTNV-0" />
        <mxCell id="WIyWlLk6GJQsqaUBKTNV-1" parent="WIyWlLk6GJQsqaUBKTNV-0" />
        <mxCell id="WIyWlLk6GJQsqaUBKTNV-3" value="Display public timeline" style="rounded=1;whiteSpace=wrap;html=1;arcSize=40;fontSize=12;glass=0;strokeWidth=1;shadow=0;fillColor=#eeeeee;strokeColor=#36393d;" parent="WIyWlLk6GJQsqaUBKTNV-1" vertex="1">
          <mxGeometry x="160" y="80" width="120" height="40" as="geometry" />
        </mxCell>
        <mxCell id="2SGv2aXw99PSuuiK9cwQ-0" value="Display user&amp;nbsp;&lt;div&gt;timeline&lt;/div&gt;" style="rounded=1;whiteSpace=wrap;html=1;arcSize=40;fontSize=12;glass=0;strokeWidth=1;shadow=0;fillColor=#eeeeee;strokeColor=#36393d;" vertex="1" parent="WIyWlLk6GJQsqaUBKTNV-1">
          <mxGeometry x="360" y="80" width="120" height="40" as="geometry" />
        </mxCell>
        <mxCell id="2SGv2aXw99PSuuiK9cwQ-11" style="edgeStyle=orthogonalEdgeStyle;rounded=0;orthogonalLoop=1;jettySize=auto;html=1;" edge="1" parent="WIyWlLk6GJQsqaUBKTNV-1" source="2SGv2aXw99PSuuiK9cwQ-2" target="2SGv2aXw99PSuuiK9cwQ-10">
          <mxGeometry relative="1" as="geometry" />
        </mxCell>
        <mxCell id="2SGv2aXw99PSuuiK9cwQ-2" value="Type in&amp;nbsp;&lt;div&gt;search field&lt;/div&gt;" style="rounded=1;whiteSpace=wrap;html=1;arcSize=40;fontSize=12;glass=0;strokeWidth=1;shadow=0;fillColor=#eeeeee;strokeColor=#36393d;" vertex="1" parent="WIyWlLk6GJQsqaUBKTNV-1">
          <mxGeometry x="260" y="190" width="120" height="40" as="geometry" />
        </mxCell>
        <mxCell id="2SGv2aXw99PSuuiK9cwQ-3" style="edgeStyle=orthogonalEdgeStyle;rounded=0;orthogonalLoop=1;jettySize=auto;html=1;entryX=0.333;entryY=0;entryDx=0;entryDy=0;entryPerimeter=0;" edge="1" parent="WIyWlLk6GJQsqaUBKTNV-1" source="WIyWlLk6GJQsqaUBKTNV-3" target="2SGv2aXw99PSuuiK9cwQ-2">
          <mxGeometry relative="1" as="geometry" />
        </mxCell>
        <mxCell id="2SGv2aXw99PSuuiK9cwQ-4" style="edgeStyle=orthogonalEdgeStyle;rounded=0;orthogonalLoop=1;jettySize=auto;html=1;entryX=0.669;entryY=0.011;entryDx=0;entryDy=0;entryPerimeter=0;" edge="1" parent="WIyWlLk6GJQsqaUBKTNV-1" source="2SGv2aXw99PSuuiK9cwQ-0" target="2SGv2aXw99PSuuiK9cwQ-2">
          <mxGeometry relative="1" as="geometry" />
        </mxCell>
        <mxCell id="2SGv2aXw99PSuuiK9cwQ-8" style="edgeStyle=orthogonalEdgeStyle;rounded=0;orthogonalLoop=1;jettySize=auto;html=1;entryX=0.5;entryY=0;entryDx=0;entryDy=0;exitX=0.5;exitY=1;exitDx=0;exitDy=0;exitPerimeter=0;" edge="1" parent="WIyWlLk6GJQsqaUBKTNV-1" source="2SGv2aXw99PSuuiK9cwQ-5" target="2SGv2aXw99PSuuiK9cwQ-0">
          <mxGeometry relative="1" as="geometry" />
        </mxCell>
        <mxCell id="2SGv2aXw99PSuuiK9cwQ-9" style="edgeStyle=orthogonalEdgeStyle;rounded=0;orthogonalLoop=1;jettySize=auto;html=1;entryX=0.5;entryY=0;entryDx=0;entryDy=0;exitX=0.5;exitY=1;exitDx=0;exitDy=0;exitPerimeter=0;" edge="1" parent="WIyWlLk6GJQsqaUBKTNV-1" source="2SGv2aXw99PSuuiK9cwQ-5" target="WIyWlLk6GJQsqaUBKTNV-3">
          <mxGeometry relative="1" as="geometry" />
        </mxCell>
        <mxCell id="2SGv2aXw99PSuuiK9cwQ-5" value="" style="strokeWidth=2;html=1;shape=mxgraph.flowchart.start_2;whiteSpace=wrap;fillColor=#000000;" vertex="1" parent="WIyWlLk6GJQsqaUBKTNV-1">
          <mxGeometry x="310" y="-10" width="20" height="20" as="geometry" />
        </mxCell>
        <mxCell id="2SGv2aXw99PSuuiK9cwQ-15" style="edgeStyle=orthogonalEdgeStyle;rounded=0;orthogonalLoop=1;jettySize=auto;html=1;entryX=0.5;entryY=0;entryDx=0;entryDy=0;entryPerimeter=0;" edge="1" parent="WIyWlLk6GJQsqaUBKTNV-1" source="2SGv2aXw99PSuuiK9cwQ-10" target="2SGv2aXw99PSuuiK9cwQ-18">
          <mxGeometry relative="1" as="geometry">
            <mxPoint x="320" y="330.0000000000002" as="targetPoint" />
          </mxGeometry>
        </mxCell>
        <mxCell id="2SGv2aXw99PSuuiK9cwQ-10" value="Search" style="rounded=1;whiteSpace=wrap;html=1;arcSize=40;fontSize=12;glass=0;strokeWidth=1;shadow=0;fillColor=#eeeeee;strokeColor=#36393d;" vertex="1" parent="WIyWlLk6GJQsqaUBKTNV-1">
          <mxGeometry x="285" y="260" width="70" height="40" as="geometry" />
        </mxCell>
        <mxCell id="2SGv2aXw99PSuuiK9cwQ-31" style="edgeStyle=orthogonalEdgeStyle;rounded=0;orthogonalLoop=1;jettySize=auto;html=1;entryX=0.5;entryY=0;entryDx=0;entryDy=0;" edge="1" parent="WIyWlLk6GJQsqaUBKTNV-1" source="2SGv2aXw99PSuuiK9cwQ-12" target="2SGv2aXw99PSuuiK9cwQ-30">
          <mxGeometry relative="1" as="geometry" />
        </mxCell>
        <mxCell id="2SGv2aXw99PSuuiK9cwQ-32" style="edgeStyle=orthogonalEdgeStyle;rounded=0;orthogonalLoop=1;jettySize=auto;html=1;exitX=0.5;exitY=1;exitDx=0;exitDy=0;exitPerimeter=0;entryX=0.5;entryY=0;entryDx=0;entryDy=0;" edge="1" parent="WIyWlLk6GJQsqaUBKTNV-1" source="2SGv2aXw99PSuuiK9cwQ-12" target="2SGv2aXw99PSuuiK9cwQ-29">
          <mxGeometry relative="1" as="geometry" />
        </mxCell>
        <mxCell id="2SGv2aXw99PSuuiK9cwQ-12" value="Is search&amp;nbsp;&lt;div&gt;word above 2 characters?&lt;/div&gt;" style="strokeWidth=1;html=1;shape=mxgraph.flowchart.decision;whiteSpace=wrap;fillColor=#eeeeee;strokeColor=#36393d;" vertex="1" parent="WIyWlLk6GJQsqaUBKTNV-1">
          <mxGeometry x="270" y="460" width="100" height="100" as="geometry" />
        </mxCell>
        <mxCell id="2SGv2aXw99PSuuiK9cwQ-20" style="edgeStyle=orthogonalEdgeStyle;rounded=0;orthogonalLoop=1;jettySize=auto;html=1;entryX=0.5;entryY=1;entryDx=0;entryDy=0;" edge="1" parent="WIyWlLk6GJQsqaUBKTNV-1" source="2SGv2aXw99PSuuiK9cwQ-18" target="2SGv2aXw99PSuuiK9cwQ-19">
          <mxGeometry relative="1" as="geometry" />
        </mxCell>
        <mxCell id="2SGv2aXw99PSuuiK9cwQ-18" value="Is search&amp;nbsp;&lt;div&gt;word valid?&lt;/div&gt;" style="strokeWidth=1;html=1;shape=mxgraph.flowchart.decision;whiteSpace=wrap;fillColor=#eeeeee;strokeColor=#36393d;" vertex="1" parent="WIyWlLk6GJQsqaUBKTNV-1">
          <mxGeometry x="270" y="330" width="100" height="100" as="geometry" />
        </mxCell>
        <mxCell id="2SGv2aXw99PSuuiK9cwQ-21" style="edgeStyle=orthogonalEdgeStyle;rounded=0;orthogonalLoop=1;jettySize=auto;html=1;exitX=0.5;exitY=0;exitDx=0;exitDy=0;entryX=1;entryY=0.5;entryDx=0;entryDy=0;" edge="1" parent="WIyWlLk6GJQsqaUBKTNV-1" source="2SGv2aXw99PSuuiK9cwQ-19" target="2SGv2aXw99PSuuiK9cwQ-10">
          <mxGeometry relative="1" as="geometry" />
        </mxCell>
        <mxCell id="2SGv2aXw99PSuuiK9cwQ-19" value="Display message" style="rounded=1;whiteSpace=wrap;html=1;arcSize=40;fontSize=12;glass=0;strokeWidth=1;shadow=0;fillColor=#eeeeee;strokeColor=#36393d;" vertex="1" parent="WIyWlLk6GJQsqaUBKTNV-1">
          <mxGeometry x="630" y="310" width="120" height="40" as="geometry" />
        </mxCell>
        <mxCell id="2SGv2aXw99PSuuiK9cwQ-26" style="edgeStyle=orthogonalEdgeStyle;rounded=0;orthogonalLoop=1;jettySize=auto;html=1;entryX=0.5;entryY=0;entryDx=0;entryDy=0;entryPerimeter=0;" edge="1" parent="WIyWlLk6GJQsqaUBKTNV-1" source="2SGv2aXw99PSuuiK9cwQ-18" target="2SGv2aXw99PSuuiK9cwQ-12">
          <mxGeometry relative="1" as="geometry" />
        </mxCell>
        <mxCell id="2SGv2aXw99PSuuiK9cwQ-27" value="No" style="text;html=1;align=center;verticalAlign=middle;whiteSpace=wrap;rounded=0;" vertex="1" parent="WIyWlLk6GJQsqaUBKTNV-1">
          <mxGeometry x="360" y="360" width="60" height="20" as="geometry" />
        </mxCell>
        <mxCell id="2SGv2aXw99PSuuiK9cwQ-28" value="Yes" style="text;html=1;align=center;verticalAlign=middle;whiteSpace=wrap;rounded=0;" vertex="1" parent="WIyWlLk6GJQsqaUBKTNV-1">
          <mxGeometry x="310" y="430" width="60" height="20" as="geometry" />
        </mxCell>
        <mxCell id="2SGv2aXw99PSuuiK9cwQ-51" style="edgeStyle=orthogonalEdgeStyle;rounded=0;orthogonalLoop=1;jettySize=auto;html=1;entryX=0.5;entryY=0;entryDx=0;entryDy=0;" edge="1" parent="WIyWlLk6GJQsqaUBKTNV-1" source="2SGv2aXw99PSuuiK9cwQ-29" target="2SGv2aXw99PSuuiK9cwQ-44">
          <mxGeometry relative="1" as="geometry" />
        </mxCell>
        <mxCell id="2SGv2aXw99PSuuiK9cwQ-29" value="Displays users with names containing search word" style="rounded=1;whiteSpace=wrap;html=1;arcSize=40;absoluteArcSize=1;arcSize=14;strokeWidth=1;fillColor=#eeeeee;strokeColor=#36393d;" vertex="1" parent="WIyWlLk6GJQsqaUBKTNV-1">
          <mxGeometry x="180" y="600" width="100" height="70" as="geometry" />
        </mxCell>
        <mxCell id="2SGv2aXw99PSuuiK9cwQ-52" style="edgeStyle=orthogonalEdgeStyle;rounded=0;orthogonalLoop=1;jettySize=auto;html=1;entryX=0.5;entryY=0;entryDx=0;entryDy=0;" edge="1" parent="WIyWlLk6GJQsqaUBKTNV-1" source="2SGv2aXw99PSuuiK9cwQ-30" target="2SGv2aXw99PSuuiK9cwQ-44">
          <mxGeometry relative="1" as="geometry" />
        </mxCell>
        <mxCell id="2SGv2aXw99PSuuiK9cwQ-30" value="Displays users where first or last name begins with search word" style="rounded=1;whiteSpace=wrap;html=1;arcSize=40;absoluteArcSize=1;arcSize=14;strokeWidth=1;fillColor=#eeeeee;strokeColor=#36393d;" vertex="1" parent="WIyWlLk6GJQsqaUBKTNV-1">
          <mxGeometry x="360" y="600" width="100" height="70" as="geometry" />
        </mxCell>
        <mxCell id="2SGv2aXw99PSuuiK9cwQ-33" value="No" style="text;html=1;align=center;verticalAlign=middle;whiteSpace=wrap;rounded=0;" vertex="1" parent="WIyWlLk6GJQsqaUBKTNV-1">
          <mxGeometry x="330" y="555" width="60" height="30" as="geometry" />
        </mxCell>
        <mxCell id="2SGv2aXw99PSuuiK9cwQ-34" value="Yes" style="text;html=1;align=center;verticalAlign=middle;whiteSpace=wrap;rounded=0;" vertex="1" parent="WIyWlLk6GJQsqaUBKTNV-1">
          <mxGeometry x="240" y="555" width="60" height="30" as="geometry" />
        </mxCell>
        <mxCell id="2SGv2aXw99PSuuiK9cwQ-36" value="" style="strokeWidth=2;html=1;shape=mxgraph.flowchart.start_2;whiteSpace=wrap;fillColor=#FFFFFF;" vertex="1" parent="WIyWlLk6GJQsqaUBKTNV-1">
          <mxGeometry x="310" y="800" width="20" height="20" as="geometry" />
        </mxCell>
        <mxCell id="2SGv2aXw99PSuuiK9cwQ-35" value="" style="strokeWidth=2;html=1;shape=mxgraph.flowchart.start_2;whiteSpace=wrap;fillColor=#000000;" vertex="1" parent="WIyWlLk6GJQsqaUBKTNV-1">
          <mxGeometry x="315" y="805" width="10" height="10" as="geometry" />
        </mxCell>
        <mxCell id="2SGv2aXw99PSuuiK9cwQ-44" value="Press username to redirect to their user timeline" style="rounded=1;whiteSpace=wrap;html=1;arcSize=40;fontSize=12;glass=0;strokeWidth=1;shadow=0;fillColor=#eeeeee;strokeColor=#36393d;" vertex="1" parent="WIyWlLk6GJQsqaUBKTNV-1">
          <mxGeometry x="244.25" y="720" width="151.5" height="50" as="geometry" />
        </mxCell>
        <mxCell id="2SGv2aXw99PSuuiK9cwQ-49" style="edgeStyle=orthogonalEdgeStyle;rounded=0;orthogonalLoop=1;jettySize=auto;html=1;entryX=0.5;entryY=0;entryDx=0;entryDy=0;entryPerimeter=0;exitX=0.5;exitY=1;exitDx=0;exitDy=0;" edge="1" parent="WIyWlLk6GJQsqaUBKTNV-1" source="2SGv2aXw99PSuuiK9cwQ-44" target="2SGv2aXw99PSuuiK9cwQ-36">
          <mxGeometry relative="1" as="geometry" />
        </mxCell>
        <mxCell id="2SGv2aXw99PSuuiK9cwQ-54" value="&lt;em style=&quot;font-family: &amp;quot;Trebuchet MS&amp;quot;, sans-serif;&quot;&gt;&lt;font&gt;No authors found matching your search.&lt;/font&gt;&lt;/em&gt;" style="shape=note;whiteSpace=wrap;html=1;backgroundOutline=1;darkOpacity=0.05;flipH=1;fillColor=#fff2cc;strokeColor=#000000;align=right;" vertex="1" parent="WIyWlLk6GJQsqaUBKTNV-1">
          <mxGeometry x="360" y="315" width="260" height="30" as="geometry" />
        </mxCell>
        <mxCell id="2SGv2aXw99PSuuiK9cwQ-55" value="" style="endArrow=none;html=1;rounded=0;entryX=0;entryY=0.5;entryDx=0;entryDy=0;" edge="1" parent="WIyWlLk6GJQsqaUBKTNV-1" target="2SGv2aXw99PSuuiK9cwQ-19">
          <mxGeometry width="50" height="50" relative="1" as="geometry">
            <mxPoint x="620" y="330" as="sourcePoint" />
            <mxPoint x="670" y="280" as="targetPoint" />
          </mxGeometry>
        </mxCell>
      </root>
    </mxGraphModel>
  </diagram>
</mxfile>
